<svg version="1.1" id="Layer_1" xmlns="http://www.w3.org/2000/svg" xmlns:xlink="http://www.w3.org/1999/xlink" x="0px" y="0px"
	 width="100%" viewBox="0 0 1024 1024" enable-background="new 0 0 1024 1024" xml:space="preserve">
<path fill="#01284E" opacity="1.000000" stroke="none" 
	d="
M484.241455,106.418518 
	C492.701233,90.743164 507.360107,84.034195 525.280701,87.838417 
	C584.996094,100.514961 628.949646,133.796097 655.037537,189.213303 
	C662.065552,204.142624 666.576477,220.301376 671.585388,236.104172 
	C672.778076,239.867050 674.596558,241.036072 677.755493,241.935837 
	C711.152649,251.448578 742.346924,265.721832 770.299927,286.411163 
	C830.656189,331.083588 867.684814,390.299744 879.048035,464.764679 
	C888.622620,527.508972 877.432983,587.334534 848.836304,643.428772 
	C802.827576,733.677917 731.140503,797.256531 639.566833,838.991821 
	C590.668640,861.277466 539.280396,872.267151 485.382416,869.721802 
	C438.065277,867.487305 393.614014,854.994934 352.548462,831.122437 
	C348.611755,828.834045 345.240845,828.974365 341.351807,831.136841 
	C307.206177,850.123474 272.998169,868.997925 238.817734,887.922058 
	C229.595184,893.028198 218.492416,891.942322 209.884460,885.024780 
	C201.847885,878.566711 198.370132,868.019409 201.228027,858.207703 
	C213.957718,814.504333 226.687469,770.800720 239.573929,727.143494 
	C240.736328,723.205444 240.473785,720.035583 238.617706,716.353455 
	C217.700699,674.857178 207.011414,630.828247 209.355057,584.383179 
	C212.648499,519.115234 233.863586,460.196106 275.352173,409.111267 
	C275.770599,408.596130 276.166595,408.062744 276.418762,407.737091 
	C265.317169,399.806183 253.880173,392.344421 243.226807,383.894653 
	C208.657440,356.475555 181.385574,323.557617 167.464874,280.874939 
	C161.351166,262.129486 158.925766,242.905411 160.149948,223.270828 
	C161.748764,197.627518 180.913467,176.446487 208.103012,170.012146 
	C231.997070,164.357666 255.070679,168.107147 277.587372,176.630020 
	C313.958221,190.396896 344.145630,213.286987 371.118713,240.781982 
	C387.260010,257.235626 401.347931,275.343597 413.966461,295.109741 
	C470.436584,252.517029 534.155701,232.103027 605.415771,231.777939 
	C601.410461,224.577362 597.905090,217.661652 593.843994,211.089310 
	C581.401306,190.952271 566.510193,172.997971 544.118103,163.561859 
	C533.028748,158.888794 521.103516,156.061859 509.391571,153.038467 
	C494.442688,149.179489 483.524353,138.516327 481.637817,123.261391 
	C480.979919,117.941696 483.176056,112.269035 484.241455,106.418518 
M593.835693,285.492523 
	C542.190186,286.291473 495.808075,303.408203 452.728760,330.877808 
	C450.129791,332.535004 449.457947,333.987000 450.670990,336.892456 
	C453.935242,344.711182 456.847748,352.675842 460.011780,360.537537 
	C489.800873,434.555328 535.310547,497.195679 596.037109,548.907715 
	C642.466064,588.444580 693.806824,620.251038 748.645630,646.606628 
	C758.032532,651.117981 767.607788,655.237549 776.945374,659.469849 
	C777.805054,658.494080 778.186035,658.164978 778.440979,657.757080 
	C783.200989,650.139587 788.281311,642.699097 792.640076,634.857849 
	C822.080078,581.896851 835.802734,525.904846 823.959900,465.369446 
	C813.297729,410.869263 786.244934,366.213898 741.614014,332.885773 
	C698.151245,300.429962 648.964478,284.930939 593.835693,285.492523 
M468.185944,641.320129 
	C522.021179,694.025024 584.806030,733.908630 651.075623,768.755615 
	C652.821777,769.673767 656.121582,769.592285 657.725281,768.521729 
	C672.661316,758.550476 687.616272,748.575623 702.078125,737.938782 
	C710.177734,731.981445 717.357971,724.774231 725.429016,717.713257 
	C721.061279,715.500732 717.692383,713.695251 714.242310,712.061157 
	C649.940857,681.605957 590.570068,643.575317 537.036743,596.607056 
	C486.449097,552.223267 444.037872,500.941223 408.628876,443.800079 
	C407.125488,441.373962 405.628204,440.542938 402.704926,440.558289 
	C381.972351,440.667145 361.482910,438.719269 341.720947,431.937683 
	C335.536011,429.815247 329.472260,427.339569 322.521515,424.711182 
	C352.238708,510.026398 404.211029,579.280212 468.185944,641.320129 
M516.005859,770.497070 
	C463.693268,737.782837 416.820038,698.673218 376.541718,651.820068 
	C348.125824,618.765747 322.403778,583.825012 303.618958,544.296753 
	C295.893890,528.041138 289.483276,511.160950 282.516327,494.663239 
	C282.669952,494.494965 282.272156,494.769012 282.096130,495.146484 
	C263.716614,534.562195 256.301208,575.862427 262.333008,619.039734 
	C268.723877,664.787170 288.395660,704.692505 320.475220,737.615906 
	C382.810913,801.591248 458.522827,827.145264 547.083008,812.848633 
	C557.568054,811.156006 567.856201,808.243591 578.395874,805.860413 
	C557.319519,793.936218 536.964233,782.419922 516.005859,770.497070 
z"/>
<path fill="#FECA1A" opacity="1.000000" stroke="none" 
	d="
M594.281860,285.472290 
	C648.964478,284.930939 698.151245,300.429962 741.614014,332.885773 
	C786.244934,366.213898 813.297729,410.869263 823.959900,465.369446 
	C835.802734,525.904846 822.080078,581.896851 792.640076,634.857849 
	C788.281311,642.699097 783.200989,650.139587 778.440979,657.757080 
	C778.186035,658.164978 777.805054,658.494080 776.945374,659.469849 
	C767.607788,655.237549 758.032532,651.117981 748.645630,646.606628 
	C693.806824,620.251038 642.466064,588.444580 596.037109,548.907715 
	C535.310547,497.195679 489.800873,434.555328 460.011780,360.537537 
	C456.847748,352.675842 453.935242,344.711182 450.670990,336.892456 
	C449.457947,333.987000 450.129791,332.535004 452.728760,330.877808 
	C495.808075,303.408203 542.190186,286.291473 594.281860,285.472290 
M664.182983,365.560638 
	C641.359192,370.661621 626.075684,389.497467 625.873840,412.774292 
	C625.642517,439.453827 647.319092,461.093384 674.485107,461.302490 
	C700.608765,461.503571 722.576599,439.753082 722.873047,413.476715 
	C723.200195,384.481689 696.384155,359.700928 664.182983,365.560638 
z"/>
<path fill="#FECA1A" opacity="1.000000" stroke="none" 
	d="
M467.924103,641.079590 
	C404.211029,579.280212 352.238708,510.026398 322.521515,424.711182 
	C329.472260,427.339569 335.536011,429.815247 341.720947,431.937683 
	C361.482910,438.719269 381.972351,440.667145 402.704926,440.558289 
	C405.628204,440.542938 407.125488,441.373962 408.628876,443.800079 
	C444.037872,500.941223 486.449097,552.223267 537.036743,596.607056 
	C590.570068,643.575317 649.940857,681.605957 714.242310,712.061157 
	C717.692383,713.695251 721.061279,715.500732 725.429016,717.713257 
	C717.357971,724.774231 710.177734,731.981445 702.078125,737.938782 
	C687.616272,748.575623 672.661316,758.550476 657.725281,768.521729 
	C656.121582,769.592285 652.821777,769.673767 651.075623,768.755615 
	C584.806030,733.908630 522.021179,694.025024 467.924103,641.079590 
z"/>
<path fill="#FECA1B" opacity="1.000000" stroke="none" 
	d="
M516.307373,770.700378 
	C536.964233,782.419922 557.319519,793.936218 578.395874,805.860413 
	C567.856201,808.243591 557.568054,811.156006 547.083008,812.848633 
	C458.522827,827.145264 382.810913,801.591248 320.475220,737.615906 
	C288.395660,704.692505 268.723877,664.787170 262.333008,619.039734 
	C256.301208,575.862427 263.716614,534.562195 282.096130,495.146484 
	C282.272156,494.769012 282.669952,494.494965 282.516327,494.663239 
	C289.483276,511.160950 295.893890,528.041138 303.618958,544.296753 
	C322.403778,583.825012 348.125824,618.765747 376.541718,651.820068 
	C416.820038,698.673218 463.693268,737.782837 516.307373,770.700378 
z"/>
<path fill="#01274E" opacity="1.000000" stroke="none" 
	d="
M664.586304,365.442322 
	C696.384155,359.700928 723.200195,384.481689 722.873047,413.476715 
	C722.576599,439.753082 700.608765,461.503571 674.485107,461.302490 
	C647.319092,461.093384 625.642517,439.453827 625.873840,412.774292 
	C626.075684,389.497467 641.359192,370.661621 664.586304,365.442322 
z"/>
</svg>